<?xml version="1.0" encoding="UTF-8"?>
<svg width="200px" height="42px" viewBox="0 0 200 42" version="1.1" xmlns="http://www.w3.org/2000/svg" xmlns:xlink="http://www.w3.org/1999/xlink">
    <!-- Generator: Sketch 52.5 (67469) - http://www.bohemiancoding.com/sketch -->
    <title>do-btn-blue</title>
    <desc>Created with Sketch.</desc>
    <g id="Page-1" stroke="none" stroke-width="1" fill="none" fill-rule="evenodd">
        <g id="Partner-welcome-kit-Copy-3" transform="translate(-651.000000, -762.000000)">
            <g id="do-btn-blue" transform="translate(651.000000, 763.000000)">
                <rect id="Rectangle-Copy" fill="#0069FF" x="0" y="0" width="200" height="40" rx="6"></rect>
                <path d="M45,0 L45,40" id="Line-2" stroke="#FFFFFF" stroke-linecap="square"></path>
                <g id="DO_Logo_horizontal_blue-Copy" transform="translate(13.000000, 11.000000)" fill="#FFFFFF">
                    <path d="M10.0098493,20 L10.0098493,16.1262429 C14.12457,16.1262429 17.2897398,12.0548452 15.7269372,7.74627862 C15.1334679,6.14538921 13.8674,4.86072487 12.2650328,4.28756693 C7.952489,2.72620566 3.87733294,5.88845634 3.87733294,9.99938223 C3.87733294,9.99938223 3.87733294,9.99938223 3.87733294,9.99938223 L0,9.99938223 C0,3.45747613 6.3303395,-1.64165309 13.1948014,0.492866119 C16.2017127,1.42177726 18.57559,3.81322933 19.5053586,6.79760341 C21.6418482,13.6754986 16.5577943,20 10.0098493,20 Z" id="XMLID_49_"></path>
                    <polygon id="XMLID_47_" points="9.56521739 15.6521739 6.08695652 15.6521739 6.08695652 12.173913 6.08695652 12.173913 9.56521739 12.173913 9.56521739 12.173913"></polygon>
                    <polygon id="XMLID_46_" points="6.08695652 19.1304348 3.47826087 19.1304348 3.47826087 19.1304348 3.47826087 16.5217391 6.08695652 16.5217391"></polygon>
                    <polygon id="XMLID_45_" points="3.47826087 16.5217391 0.869565217 16.5217391 0.869565217 16.5217391 0.869565217 13.9130435 0.869565217 13.9130435 3.47826087 13.9130435 3.47826087 13.9130435"></polygon>
                </g>
                <text id="Create-a-Droplet-Copy" font-family="Sailec-Medium, Sailec" font-size="16" font-weight="400" fill="#FFFFFF">
                    <tspan x="58" y="26">Create a Droplet</tspan>
                </text>
            </g>
        </g>
    </g>
</svg>